<svg viewBox="0 0 1000 1000" xmlns="http://www.w3.org/2000/svg"><defs><linearGradient id="c" gradientTransform="rotate(165 .5 .5)"><stop offset="0%" stop-color="#FEE140"/><stop offset="100%" stop-color="#FA709A"/></linearGradient><clipPath id="b"><path fill="currentColor" d="M924 660q-42 160-192.5 230.5T438 908q-143-53-248.5-154.5t-130-262Q35 331 157 224T429.5 81q150.5-36 285 45t193 227.5Q966 500 924 660Z"/></clipPath><filter id="a" x="-50vw" y="-50vh" width="100vw" height="100vh"><feFlood flood-color="#fff" result="neutral-gray"/><feTurbulence type="fractalNoise" baseFrequency="2.5" numOctaves="100" stitchTiles="stitch" result="noise"/><feColorMatrix in="noise" type="saturate" values="0" result="destaturatedNoise"/><feComponentTransfer in="desaturatedNoise" result="theNoise"><feFuncA type="table" tableValues="0 0 0.5 0"/></feComponentTransfer><feBlend in="SourceGraphic" in2="theNoise" mode="soft-light" result="noisy-image"/></filter></defs><g filter="url(#a)" clip-path="url(#b)"><path fill="url(#c)" d="M924 660q-42 160-192.5 230.5T438 908q-143-53-248.5-154.5t-130-262Q35 331 157 224T429.5 81q150.5-36 285 45t193 227.5Q966 500 924 660Z"/></g></svg>