<svg viewBox="0 0 1000 1000" xmlns="http://www.w3.org/2000/svg"><defs><linearGradient id="c" gradientTransform="rotate(150 .5 .5)"><stop offset="0%" stop-color="#00DBDE"/><stop offset="100%" stop-color="#FC00FF"/></linearGradient><clipPath id="b"><path fill="currentColor" d="M877 648.5Q853 797 718.5 888t-280 31q-145.5-60-236-169t-99-253q-8.5-144 90-251T439 76.5Q586 14 703 123t157.5 243Q901 500 877 648.5Z"/></clipPath><filter id="a" x="-50vw" y="-50vh" width="100vw" height="100vh"><feFlood flood-color="#fff" result="neutral-gray"/><feTurbulence type="fractalNoise" baseFrequency="2.5" numOctaves="100" stitchTiles="stitch" result="noise"/><feColorMatrix in="noise" type="saturate" values="0" result="destaturatedNoise"/><feComponentTransfer in="desaturatedNoise" result="theNoise"><feFuncA type="table" tableValues="0 0 0.5 0"/></feComponentTransfer><feBlend in="SourceGraphic" in2="theNoise" mode="soft-light" result="noisy-image"/></filter></defs><g filter="url(#a)" clip-path="url(#b)"><path fill="url(#c)" d="M877 648.5Q853 797 718.5 888t-280 31q-145.5-60-236-169t-99-253q-8.5-144 90-251T439 76.5Q586 14 703 123t157.5 243Q901 500 877 648.5Z"/></g></svg>