<svg viewBox="0 0 1000 1000" xmlns="http://www.w3.org/2000/svg"><defs><linearGradient id="c" gradientTransform="rotate(-45 .5 .5)"><stop offset="0%" stop-color="#FF9A8B"/><stop offset="50%" stop-color="#FF6A88"/><stop offset="100%" stop-color="#ff99ac"/></linearGradient><clipPath id="b"><path fill="currentColor" d="M917.5 645q-71.5 145-214 173T446 819.5Q331 793 186.5 730t-146-230.5q-1.5-167.5 129-257t273-156Q585 20 697 130.5t202 240Q989 500 917.5 645Z"/></clipPath><filter id="a" x="-50vw" y="-50vh" width="100vw" height="100vh"><feFlood flood-color="#fff" result="neutral-gray"/><feTurbulence type="fractalNoise" baseFrequency="2.5" numOctaves="100" stitchTiles="stitch" result="noise"/><feColorMatrix in="noise" type="saturate" values="0" result="destaturatedNoise"/><feComponentTransfer in="desaturatedNoise" result="theNoise"><feFuncA type="table" tableValues="0 0 0.5 0"/></feComponentTransfer><feBlend in="SourceGraphic" in2="theNoise" mode="soft-light" result="noisy-image"/></filter></defs><g filter="url(#a)" clip-path="url(#b)"><path fill="url(#c)" d="M917.5 645q-71.5 145-214 173T446 819.5Q331 793 186.5 730t-146-230.5q-1.5-167.5 129-257t273-156Q585 20 697 130.5t202 240Q989 500 917.5 645Z"/></g></svg>