<?xml version="1.0" encoding="utf-8"?>
<svg viewBox="0 0 1024 1024" width="1024" height="1024" xmlns="http://www.w3.org/2000/svg">
  <path d="M 1024 512 C 1024 794.77 794.77 1024 512 1024 C 229.23 1024 0 794.77 0 512 C 0 229.23 229.23 0 512 0 C 794.77 0 1024 229.23 1024 512 Z M 671.2 371.6 C 666.2 372.1 661.7 374.8 657.9 378.6 C 653.7 383.3 651.3 389.2 649.5 395.2 C 645.8 407.9 643.4 420.9 641.3 434 C 639.6 444.4 637.8 454.9 636.2 465.4 C 634.2 479.5 632.7 493.7 630.5 507.7 C 629.1 516.9 624.9 525.4 620.7 533.6 C 617.8 539.5 614.9 545.4 611.6 551 C 610.2 553.4 608.3 555.8 605.6 556.7 C 603.6 557.4 601.1 557 599.6 555.3 C 597.5 552.9 597.1 549.5 596.7 546.4 C 595.3 534.6 597.8 522.9 600 511.4 C 602.6 497.4 605.1 483.3 607.7 469.3 C 609.6 459.1 611.3 448.8 613.4 438.6 C 615.8 427 618.6 415.4 619.4 403.6 C 620 396.1 620.8 388.2 617.9 381.1 C 616.3 377.5 613.7 373.7 609.7 372.5 C 606.6 371.6 602.9 371.5 600 373.2 C 597 374.8 594.7 377.4 592.8 380.1 C 588.3 386.1 585.7 393.3 583.7 400.4 C 579.8 414.5 576.8 428.9 575.1 443.5 C 574.3 449.3 573.8 455.2 573.3 461.1 C 573 464.9 572.6 468.6 572.6 472.4 C 572.6 474.5 572 476.8 570.3 478.1 C 568.4 479.5 565.8 479.4 563.5 479.3 C 556.1 478.9 548.7 480.9 542.5 484.8 C 536.9 488.2 532.2 492.9 528.6 498.3 C 524.1 504.7 521.6 512.1 518.9 519.4 C 516.1 526.8 513.3 534.4 508.7 541 C 505.4 545.8 501.8 550.4 497.7 554.5 C 493.4 558.7 488.2 562.6 482.1 563.9 C 476.8 565.1 471.4 562.5 467.8 558.8 C 464.7 555.2 463.2 550.5 462.7 545.9 C 462.5 544.2 462.4 542.2 463.7 540.9 C 465.2 539.4 467.5 539.5 469.5 539.3 C 483.2 538.2 495.9 529.5 502.1 517.3 C 506.6 508.4 508.4 498.1 506.9 488.3 C 506 482.5 503.8 476.8 499.7 472.6 C 494.8 467.6 488 464.9 481.1 464.8 C 468.7 464.5 456.7 470.8 449.3 480.6 C 444.3 487.1 441.1 494.8 439 502.7 C 437 510.4 435.6 518.3 432.9 525.8 C 430.7 532 427.6 538 422.9 542.7 C 420.6 544.9 417.6 546.7 414.3 546.4 C 412.4 546.3 410.8 544.7 410.4 542.9 C 409.7 540.4 410.1 537.8 410.5 535.3 C 411.9 527.7 414.5 520.4 416.6 513 C 417.8 509.2 417.4 504.9 416.2 501.1 C 414.4 495.4 409.6 491.1 404.2 489 C 399.6 487.4 394.6 488.3 389.8 487.9 C 387.7 487.8 385.6 486.5 384.9 484.4 C 384.2 481.9 385 479.4 385.7 477 C 386.8 473.3 385.2 469.1 382.1 466.9 C 379.3 464.8 375.6 464.2 372.3 464.8 C 368.8 465.5 365.8 467.8 363.4 470.3 C 359.6 474.6 357.4 480.5 358.1 486.3 C 359.1 490.5 360 494.9 359 499.2 C 357.5 505.7 353.5 511.3 349.7 516.6 C 345.9 522.3 342 527.9 337.5 533 C 329.1 542.9 318.5 551.3 306.3 556 C 297.2 559.5 287 560.8 277.3 558.9 C 270.5 557.6 264.1 554.6 258.8 550.2 C 254.7 546.8 251.4 542.5 248.9 537.7 C 244.9 530.1 242.9 521.7 241.9 513.3 C 238.9 487.5 244 460.9 255.6 437.7 C 259.6 429.6 264.6 421.8 271.3 415.6 C 277.5 409.9 285.4 405.9 293.8 404.8 C 300.9 403.8 308.8 405.1 314.4 409.9 C 318.4 413.2 320.1 418.5 319.9 423.6 C 319.7 432.7 314.8 440.8 313.8 449.7 C 313.3 453.5 313.8 457.4 315.4 460.8 C 316.8 464 319.4 466.8 322.8 467.8 C 326.5 468.9 330.6 467.9 333.7 465.8 C 337.3 463.4 339.8 459.7 341.4 455.8 C 343.1 451.7 344 447.2 345.1 442.9 C 348.6 428.8 354.1 415.2 361.4 402.6 C 363.6 398.9 365.9 395.2 367.3 391.1 C 368.2 388.2 368.6 385.1 367.9 382.1 C 366.8 377.6 363.3 373.7 358.8 372.4 C 354 371 348.5 372.5 345.1 376.2 C 342.4 379.2 340.9 383.2 337.7 385.7 C 335.6 387.3 332.7 387.6 330.2 386.8 C 326.6 385.7 323.6 383.5 320.2 382 C 308.9 376.8 295.9 376.1 283.8 378.8 C 271.1 381.6 259.6 388.5 250.1 397.4 C 241.4 405.5 234.5 415.3 228.7 425.7 C 221.4 439 216 453.3 213 468.2 C 211.3 476.4 210.5 484.8 210.3 493.2 L 210.3 501 C 210.8 512.4 211.8 523.8 214.7 534.9 C 216.8 542.7 219.7 550.3 223.5 557.4 C 228.4 566.6 235.3 574.9 243.9 580.9 C 248.9 584.4 254.6 586.8 260.4 588.5 C 270.2 591.4 280.7 592.2 290.8 590.8 C 304.7 588.9 317.8 583 329.2 574.9 C 339.2 567.6 348.5 559.3 356.3 549.7 C 364.4 539.8 371 528.7 375.9 516.9 C 376.7 515.2 377.4 513.5 378.8 512.2 C 380.2 510.9 382.3 509.8 384.3 510.6 C 386.1 511.4 388 512.5 388.9 514.3 C 390 516.6 389.8 519.3 389.2 521.8 C 388.1 526.7 386.3 531.3 384.9 536.1 C 382.7 543.4 381.1 551.2 382.2 558.9 C 383.1 564.8 385.4 570.7 389.7 574.9 C 393.7 578.8 399.3 580.9 404.9 580.9 C 412.2 580.9 419.2 578.2 425.2 574.3 C 429.1 571.8 432.6 568.5 435.3 564.7 C 436.2 563.5 437.6 562.3 439.2 562.7 C 441 563.1 441.9 564.9 442.6 566.5 C 445.1 572.6 449.4 577.8 454.8 581.5 C 461.2 586 469.1 588.4 477 588.3 C 484.5 588.5 491.8 586.2 498.4 582.7 C 504.9 579.2 510.3 574.1 515.7 569.1 C 516.4 568.4 517.3 567.6 518.4 568 C 519.8 568.4 520.5 569.9 521 571.2 C 524.6 580.4 533.5 587.2 543.3 588.2 C 551.4 589 559.8 586.1 565.6 580.3 C 567.7 578.2 569.2 575.5 571.8 574 C 573.5 572.9 576 572.7 577.6 574.1 C 579.7 575.9 580.2 578.8 581.5 581.1 C 584.3 586.3 590.2 589.5 596.1 589.6 C 601.7 589.7 607.1 587.5 611.6 584.3 C 618.6 579.3 623.6 572.1 628.9 565.4 C 630 564 631.5 562.4 633.5 562.7 C 635.3 562.9 635.8 564.9 636.4 566.3 C 640.9 576.3 652 582.4 662.8 581.7 C 672.1 581.2 680.7 576.6 687.5 570.5 C 690.1 568.3 692.2 565.4 695.4 564 C 697.2 563.2 699.4 563.2 700.9 564.6 C 703.1 566.7 703.8 569.7 705.3 572.2 C 708.4 578.2 715.7 581.6 722.4 580.3 C 729.1 579 734.9 574.4 738 568.4 C 739 566.8 739.9 564.9 741.7 564.1 C 743.2 564.2 743.5 566 743.7 567.2 C 744.8 576.4 743 585.5 741.8 594.5 C 741.5 596.4 740.9 598.7 739 599.6 C 736.3 601 733.2 600 730.4 599.8 C 725.3 599.4 720.2 598.9 715.1 598.5 C 706.9 597.8 698.6 597.8 690.5 598.7 C 683.4 599.6 676.2 601.4 669.9 605.2 C 663.3 609.1 657.7 614.7 654 621.4 C 650.8 627.3 649.1 634.1 649.7 640.8 C 650.3 648.2 653.8 655.1 659 660.3 C 664.7 666.1 672.5 669.8 680.5 671.3 C 688.3 672.7 696.4 672 704.1 670.3 C 718.2 667 731.5 660 741.8 649.8 C 751.1 640.7 758 629 761.1 616.3 C 761.2 615.6 762 615.5 762.5 615.3 C 770.9 612.3 778.9 607.9 785.7 602.1 C 795.2 594.2 802.8 584.2 808.3 573.2 C 810.3 569.2 813 565.3 813.6 560.7 L 813.6 558 C 813.3 555.7 812.3 553.4 810.4 552 C 807.9 550 804.2 549.6 801.3 551 C 799.4 551.6 798.2 553.3 797.2 555 C 794.8 558.8 793 562.9 790.5 566.7 C 785.1 575.1 778 582.3 770.8 589.2 C 769.8 590.2 768 589.3 768.1 587.8 C 769.3 574 770.9 560.2 772.7 546.4 C 775.2 524.3 778.3 502.2 781.1 480.1 C 781.4 476.4 780.9 472.4 778.3 469.5 C 776.4 467.4 773.8 465.8 771 465.7 C 768.3 465.7 765.4 466.5 763.5 468.6 C 760.6 471.6 759.1 475.5 757.9 479.4 C 755.7 487 754.3 494.8 752.9 502.6 C 751.2 511.8 749.3 521.1 745.3 529.6 C 743.3 533.8 740.8 537.8 737.7 541.3 C 735.7 543.6 732.9 545.5 729.7 545.5 C 726.9 545.5 724.5 543.6 723.1 541.2 C 721.4 538.3 721.1 534.9 721 531.7 C 720.5 517.7 723.1 503.8 727.6 490.6 C 728.9 486.9 729.7 483 729.9 479.1 C 729.9 476.2 729.4 473.1 727.5 470.7 C 723.6 465.9 715.9 464.4 710.8 468 C 707 470.6 705 474.9 703.4 479.1 C 699.2 490.1 698 501.9 696.5 513.5 C 695.4 521.2 693.2 528.7 689.4 535.5 C 686.7 540.6 683 545 679.1 549.3 C 676.3 552.2 673.2 555.2 669.3 556.4 C 666.4 557.3 663.2 556.4 661 554.4 C 658.6 552.2 657.3 548.9 656.7 545.8 C 655.6 540.1 655.2 534.3 655.4 528.5 C 655.6 522.3 655.4 516 656.9 510 C 657.8 506.4 659 502.8 660.2 499.3 C 667 479.2 675.3 459.6 681.2 439.2 C 685.8 423.8 689.3 407.8 688.5 391.7 C 688.2 386.4 687.3 380.8 683.9 376.6 C 681.6 373.7 677.9 371.9 674.2 371.6 Z M 478 487.8 C 479.4 487.3 481.1 487.4 482.4 488.2 C 484.5 489.4 485.7 491.9 485.9 494.3 C 486.2 497.9 485.3 501.5 484 504.8 C 481.9 510 478.9 515.1 474.2 518.4 C 472.1 520 469.7 521.5 467 521.4 C 465.6 521.4 464.1 520.3 464 518.8 C 463.4 513.8 464.9 508.8 466.5 504 C 468 499.5 470.2 495.3 473.1 491.6 C 474.4 490 476 488.4 478 487.8 Z M 563.7 499 C 566 498.6 568.5 498.4 570.6 499.7 C 572.3 500.7 573 502.7 573 504.5 C 573 506.8 572.3 509 572.2 511.3 C 571.8 518 571.8 524.7 572.3 531.4 C 572.6 534.7 573.3 538.1 572.2 541.3 C 570.4 546.5 567.5 551.4 563 554.7 C 559.4 557.4 555 560 550.3 559.3 C 548.5 559.2 546.7 558.5 545.4 557.2 C 543.4 555.3 542.2 552.7 541.5 550.1 C 539.2 541.6 539.4 532.6 541.5 524.1 C 542.9 518.1 545.6 512.4 549.5 507.7 C 553.1 503.3 558.1 500 563.7 499 Z M 697.4 618.6 C 703.3 618.2 709.2 618.7 715.1 619 C 720.2 619.2 725.3 619.7 730.4 620 C 731.6 620 733 619.7 734.1 620.5 C 735 621.2 734.4 622.5 734 623.3 C 732.5 625.7 731.1 628.2 729.3 630.4 C 720.3 641.5 706.8 648.8 692.6 650.4 C 688.1 650.9 683.3 650.6 679 648.7 C 675.9 647.3 673.1 645 671.6 641.9 C 670.1 638.9 670.7 635.3 672.1 632.3 C 674.2 627.5 678.4 623.8 683.3 621.8 C 687.8 619.9 692.6 618.9 697.4 618.6 Z" style="" transform="matrix(1, 0, 0, 1, 0, 7.105427357601002e-15)"/>
</svg>